<svg width="183" height="56" viewBox="0 0 183 56" fill="none" xmlns="http://www.w3.org/2000/svg">
<g filter="url(#filter0_d_12234_792)">
<rect x="6.52588" y="2.79688" width="42.8854" height="42.8854" rx="7.45833" fill="url(#paint0_linear_12234_792)"/>
<rect x="7.2251" y="3.49609" width="41.487" height="41.487" rx="6.75911" stroke="#2A52B8" stroke-width="1.39844"/>
</g>
<path d="M40.1372 12.1379V17.7723V17.8319H24.0091C23.1943 17.8319 21.5705 18.1956 21.5944 19.6504C21.6182 21.1052 23.4924 21.5683 24.4265 21.618H34.5922V27.3716C34.5028 27.3319 33.9151 27.3716 32.3266 27.3716C30.738 27.3716 29.3156 26.7754 28.8088 26.4176C27.3182 25.3345 23.9614 22.8641 22.4589 21.6478C20.5808 20.1274 20.3721 17.7723 20.6702 16.1923C21.1711 12.6149 24.0986 11.9988 25.4997 12.1379H40.1372Z" fill="#93A4FC"/>
<path d="M23.3556 36.6854V31.051V30.9913H27.3639C28.1788 30.9913 29.8025 30.6276 29.7787 29.1728C29.7548 27.718 27.8807 27.255 26.9466 27.2053H16.7808V21.4516C16.8702 21.4914 17.247 21.4428 19.0465 21.4516C20.6472 21.4595 22.0575 22.0479 22.5643 22.4056C24.0548 23.4888 27.4116 25.9591 28.9141 27.1755C30.7923 28.6959 31.0009 31.051 30.7028 32.631C30.202 36.2084 27.2745 36.8245 25.8733 36.6854H23.3556Z" fill="#93A4FC"/>
<path d="M70.6023 9.37418C70.7328 9.57928 70.8447 9.85897 70.9379 10.2132C71.0498 10.5489 71.1057 10.9031 71.1057 11.2761C71.1057 12.0032 70.9472 12.5253 70.6303 12.8423C70.3319 13.1406 69.9217 13.2898 69.3996 13.2898H63.5262V16.4503H69.6513C69.8005 16.6554 69.9217 16.9257 70.0149 17.2614C70.1268 17.597 70.1828 17.9513 70.1828 18.3242C70.1828 19.0327 70.0243 19.5455 69.7073 19.8625C69.409 20.1608 68.9987 20.31 68.4767 20.31H63.5821V26.2114C63.377 26.2673 63.0507 26.3232 62.6032 26.3792C62.1744 26.4351 61.7455 26.4631 61.3167 26.4631C60.8878 26.4631 60.5056 26.4258 60.1699 26.3512C59.853 26.2953 59.5826 26.1834 59.3588 26.0156C59.1351 25.8478 58.9673 25.6147 58.8554 25.3164C58.7435 25.018 58.6876 24.6265 58.6876 24.1417V11.9753C58.6876 11.1735 58.9207 10.5395 59.3868 10.0734C59.853 9.60725 60.4869 9.37418 61.2887 9.37418H70.6023ZM78.021 26.2953C77.8159 26.3326 77.5082 26.3792 77.098 26.4351C76.7065 26.5097 76.3056 26.547 75.8954 26.547C75.4852 26.547 75.1122 26.519 74.7766 26.4631C74.4596 26.4071 74.1893 26.2953 73.9655 26.1275C73.7418 25.9596 73.5646 25.7359 73.4341 25.4562C73.3222 25.1579 73.2663 24.7756 73.2663 24.3095V8.08762C73.4714 8.05032 73.7697 8.00371 74.1613 7.94777C74.5715 7.87319 74.9817 7.8359 75.3919 7.8359C75.8021 7.8359 76.1657 7.86387 76.4827 7.9198C76.8183 7.97574 77.098 8.08762 77.3218 8.25543C77.5455 8.42324 77.7133 8.65631 77.8252 8.95465C77.9557 9.23434 78.021 9.60725 78.021 10.0734V26.2953ZM95.0896 19.5268C95.0896 20.6829 94.9124 21.7177 94.5582 22.6314C94.2039 23.5264 93.7005 24.2815 93.0479 24.8968C92.4139 25.5121 91.6494 25.9783 90.7544 26.2953C89.8594 26.6123 88.8619 26.7707 87.7618 26.7707C86.6617 26.7707 85.6641 26.6029 84.7691 26.2673C83.8741 25.9317 83.1003 25.4562 82.4477 24.8409C81.8137 24.2069 81.3196 23.4425 80.9654 22.5475C80.6111 21.6525 80.434 20.6456 80.434 19.5268C80.434 18.4267 80.6111 17.4292 80.9654 16.5342C81.3196 15.6392 81.8137 14.884 82.4477 14.2687C83.1003 13.6348 83.8741 13.15 84.7691 12.8143C85.6641 12.4787 86.6617 12.3109 87.7618 12.3109C88.8619 12.3109 89.8594 12.488 90.7544 12.8423C91.6494 13.1779 92.4139 13.6627 93.0479 14.2967C93.7005 14.912 94.2039 15.6671 94.5582 16.5621C94.9124 17.4571 95.0896 18.4454 95.0896 19.5268ZM85.3005 19.5268C85.3005 20.6642 85.5149 21.5406 85.9438 22.1559C86.3913 22.7526 87.0066 23.0509 87.7897 23.0509C88.5729 23.0509 89.1695 22.7432 89.5797 22.1279C90.0086 21.5126 90.223 20.6456 90.223 19.5268C90.223 18.4081 90.0086 17.5504 89.5797 16.9537C89.1509 16.3384 88.5449 16.0307 87.7618 16.0307C86.9786 16.0307 86.3727 16.3384 85.9438 16.9537C85.5149 17.5504 85.3005 18.4081 85.3005 19.5268ZM104.993 25.9037C104.732 26.1275 104.377 26.3046 103.93 26.4351C103.482 26.5843 102.951 26.6589 102.336 26.6589C101.571 26.6589 100.909 26.547 100.35 26.3232C99.7905 26.1181 99.4176 25.8198 99.2311 25.4282C99.026 24.9807 98.7836 24.2722 98.504 23.3026C98.2429 22.333 97.9819 21.2702 97.7208 20.1142C97.4598 18.9581 97.2081 17.7835 96.9657 16.5901C96.7419 15.3968 96.5648 14.3433 96.4343 13.4296C96.6953 13.1686 97.0403 12.9449 97.4691 12.7584C97.9166 12.5533 98.4014 12.4507 98.9235 12.4507C99.5761 12.4507 100.107 12.5999 100.518 12.8982C100.947 13.1779 101.208 13.672 101.301 14.3806C101.487 15.7977 101.646 16.9724 101.776 17.9046C101.907 18.8183 102.009 19.5735 102.084 20.1701C102.177 20.7481 102.242 21.1956 102.28 21.5126C102.336 21.811 102.382 22.0533 102.42 22.2398H102.531C102.587 21.9415 102.681 21.5126 102.811 20.9532C102.96 20.3752 103.128 19.7226 103.315 18.9954C103.501 18.2682 103.697 17.4851 103.902 16.6461C104.107 15.7883 104.312 14.94 104.517 14.1009C104.89 13.8958 105.254 13.7373 105.608 13.6254C105.981 13.5136 106.438 13.4576 106.978 13.4576C107.631 13.4576 108.19 13.5602 108.657 13.7653C109.123 13.9704 109.421 14.2874 109.552 14.7162C109.775 15.5366 109.99 16.3384 110.195 17.1215C110.4 17.886 110.586 18.6039 110.754 19.2751C110.922 19.9277 111.071 20.5151 111.202 21.0371C111.332 21.5406 111.426 21.9415 111.481 22.2398H111.621C111.826 20.8041 112.022 19.3124 112.209 17.7648C112.414 16.2172 112.6 14.6416 112.768 13.0381C113.104 12.833 113.458 12.6838 113.831 12.5906C114.204 12.4974 114.577 12.4507 114.95 12.4507C115.602 12.4507 116.143 12.5906 116.572 12.8703C117.001 13.15 117.215 13.6348 117.215 14.3246C117.215 14.623 117.168 15.0705 117.075 15.6671C116.982 16.2638 116.861 16.9351 116.712 17.6809C116.562 18.4267 116.385 19.2099 116.18 20.0303C115.994 20.8507 115.798 21.6431 115.593 22.4076C115.406 23.1721 115.22 23.862 115.033 24.4773C114.866 25.0926 114.717 25.5681 114.586 25.9037C114.325 26.1275 113.924 26.3046 113.383 26.4351C112.843 26.5843 112.265 26.6589 111.649 26.6589C110.083 26.6589 109.16 26.2673 108.88 25.4842C108.768 25.1486 108.629 24.729 108.461 24.2256C108.293 23.7035 108.116 23.1348 107.929 22.5195C107.743 21.9042 107.566 21.2702 107.398 20.6176C107.23 19.9464 107.09 19.3031 106.978 18.6878C106.848 19.3404 106.689 20.021 106.503 20.7295C106.317 21.4194 106.121 22.1 105.916 22.7712C105.729 23.4238 105.552 24.0298 105.384 24.5892C105.216 25.1299 105.086 25.5681 104.993 25.9037ZM124.549 13.2898C124.418 13.0847 124.297 12.805 124.185 12.4507C124.073 12.0965 124.017 11.7236 124.017 11.332C124.017 10.6048 124.176 10.0827 124.493 9.76574C124.828 9.44876 125.257 9.29027 125.779 9.29027H137.974C138.104 9.49538 138.225 9.77506 138.337 10.1293C138.449 10.4836 138.505 10.8565 138.505 11.2481C138.505 11.9753 138.337 12.4974 138.002 12.8143C137.685 13.1313 137.265 13.2898 136.743 13.2898H133.639V26.2114C133.433 26.2673 133.107 26.3232 132.66 26.3792C132.231 26.4351 131.802 26.4631 131.373 26.4631C130.944 26.4631 130.562 26.4258 130.226 26.3512C129.909 26.2953 129.639 26.1834 129.415 26.0156C129.192 25.8478 129.024 25.6147 128.912 25.3164C128.8 25.018 128.744 24.6265 128.744 24.1417V13.2898H124.549ZM145.48 23.3026C145.797 23.3026 146.142 23.2746 146.515 23.2187C146.907 23.1441 147.196 23.0509 147.382 22.939V20.7015L145.368 20.8693C144.846 20.9066 144.417 21.0185 144.082 21.205C143.746 21.3914 143.578 21.6711 143.578 22.044C143.578 22.4169 143.718 22.7246 143.998 22.967C144.296 23.1907 144.79 23.3026 145.48 23.3026ZM145.257 12.3109C146.263 12.3109 147.177 12.4134 147.997 12.6186C148.837 12.8237 149.545 13.1406 150.123 13.5695C150.72 13.9797 151.177 14.5111 151.494 15.1637C151.811 15.7977 151.969 16.5528 151.969 17.4292V23.6942C151.969 24.179 151.829 24.5799 151.55 24.8968C151.288 25.1952 150.972 25.4562 150.599 25.68C149.387 26.4071 147.681 26.7707 145.48 26.7707C144.492 26.7707 143.597 26.6775 142.795 26.4911C142.012 26.3046 141.332 26.0249 140.754 25.652C140.194 25.2791 139.756 24.8036 139.439 24.2256C139.141 23.6476 138.992 22.9763 138.992 22.2118C138.992 20.9253 139.374 19.937 140.138 19.2471C140.903 18.5573 142.087 18.1284 143.69 17.9606L147.354 17.569V17.3732C147.354 16.8325 147.112 16.4503 146.627 16.2265C146.161 15.9841 145.48 15.8629 144.585 15.8629C143.877 15.8629 143.187 15.9375 142.516 16.0867C141.844 16.2358 141.238 16.4223 140.698 16.6461C140.455 16.4782 140.25 16.2265 140.082 15.8909C139.915 15.5366 139.831 15.173 139.831 14.8001C139.831 14.3153 139.942 13.9331 140.166 13.6534C140.409 13.3551 140.772 13.1033 141.257 12.8982C141.798 12.6931 142.432 12.544 143.159 12.4507C143.905 12.3575 144.604 12.3109 145.257 12.3109ZM166.343 22.2678C166.343 23.6849 165.812 24.7943 164.749 25.5961C163.686 26.3978 162.12 26.7987 160.05 26.7987C159.267 26.7987 158.54 26.7428 157.869 26.6309C157.198 26.519 156.62 26.3512 156.135 26.1275C155.669 25.8851 155.296 25.5867 155.016 25.2325C154.755 24.8782 154.625 24.4587 154.625 23.9739C154.625 23.5264 154.718 23.1535 154.904 22.8551C155.091 22.5381 155.314 22.2771 155.575 22.072C156.116 22.3703 156.732 22.6407 157.421 22.8831C158.13 23.1068 158.941 23.2187 159.855 23.2187C160.433 23.2187 160.871 23.1348 161.169 22.967C161.486 22.7992 161.645 22.5754 161.645 22.2957C161.645 22.0347 161.533 21.8296 161.309 21.6804C161.085 21.5313 160.712 21.4101 160.19 21.3168L159.351 21.149C157.729 20.832 156.517 20.3379 155.715 19.6667C154.932 18.9768 154.541 17.9979 154.541 16.73C154.541 16.0401 154.69 15.4154 154.988 14.8561C155.286 14.2967 155.706 13.8305 156.247 13.4576C156.787 13.0847 157.431 12.7957 158.177 12.5906C158.941 12.3855 159.78 12.2829 160.694 12.2829C161.384 12.2829 162.027 12.3389 162.624 12.4507C163.239 12.544 163.77 12.6931 164.218 12.8982C164.665 13.1033 165.02 13.3737 165.281 13.7093C165.542 14.0263 165.672 14.4086 165.672 14.8561C165.672 15.2849 165.588 15.6578 165.42 15.9748C165.271 16.2731 165.076 16.5249 164.833 16.73C164.684 16.6367 164.46 16.5435 164.162 16.4503C163.864 16.3384 163.537 16.2452 163.183 16.1706C162.829 16.0774 162.465 16.0028 162.092 15.9468C161.738 15.8909 161.412 15.8629 161.113 15.8629C160.498 15.8629 160.023 15.9375 159.687 16.0867C159.351 16.2172 159.183 16.4316 159.183 16.73C159.183 16.9351 159.277 17.1029 159.463 17.2334C159.65 17.3639 160.004 17.4851 160.526 17.597L161.393 17.7928C163.183 18.203 164.451 18.7717 165.197 19.4989C165.961 20.2074 166.343 21.1304 166.343 22.2678ZM181.927 23.862C181.834 24.7383 181.573 25.4096 181.144 25.8757C180.734 26.3419 180.128 26.575 179.326 26.575C178.73 26.575 178.198 26.4351 177.732 26.1554C177.266 25.8571 176.762 25.363 176.222 24.6731L173.453 21.205V26.2953C173.248 26.3326 172.94 26.3792 172.53 26.4351C172.138 26.5097 171.737 26.547 171.327 26.547C170.917 26.547 170.544 26.519 170.208 26.4631C169.891 26.4071 169.621 26.2953 169.397 26.1275C169.174 25.9596 168.996 25.7359 168.866 25.4562C168.754 25.1579 168.698 24.7756 168.698 24.3095V8.11559C168.903 8.05965 169.202 8.00371 169.593 7.94777C170.003 7.87319 170.414 7.8359 170.824 7.8359C171.234 7.8359 171.598 7.86387 171.914 7.9198C172.25 7.97574 172.53 8.08762 172.754 8.25543C172.977 8.42324 173.145 8.65631 173.257 8.95465C173.388 9.23434 173.453 9.60725 173.453 10.0734V17.4571L178.263 12.5346C179.233 12.5346 180.007 12.7491 180.585 13.1779C181.181 13.6068 181.48 14.1475 181.48 14.8001C181.48 15.0798 181.433 15.3408 181.34 15.5832C181.247 15.807 181.098 16.0401 180.892 16.2825C180.706 16.5249 180.454 16.7859 180.137 17.0656C179.839 17.3266 179.485 17.6343 179.074 17.9886L177.452 19.387L181.927 23.862Z" fill="#151259"/>
<path d="M61.0644 39.0366V32.6166H58.8744V31.6466H64.2544V32.6166H62.0644V39.0366H61.0644ZM69.6177 36.2566C69.6177 36.3233 69.6077 36.4866 69.5877 36.7466H65.3177C65.4043 37.22 65.6043 37.5933 65.9177 37.8666C66.231 38.14 66.6577 38.2766 67.1977 38.2766C67.5177 38.2766 67.8477 38.2233 68.1877 38.1166C68.5277 38.0033 68.821 37.8566 69.0677 37.6766L69.4777 38.4066C69.1977 38.62 68.851 38.8 68.4377 38.9466C68.0243 39.0866 67.6043 39.1566 67.1777 39.1566C66.691 39.1566 66.2577 39.0766 65.8777 38.9166C65.5043 38.7566 65.2077 38.54 64.9877 38.2666C64.7677 37.9933 64.601 37.6933 64.4877 37.3666C64.3743 37.04 64.3177 36.6966 64.3177 36.3366C64.3177 35.5366 64.5677 34.87 65.0677 34.3366C65.5743 33.81 66.2277 33.5466 67.0277 33.5466C67.7877 33.5466 68.4077 33.79 68.8877 34.2766C69.3743 34.7633 69.6177 35.4233 69.6177 36.2566ZM65.3177 35.9166H68.6277C68.601 35.4566 68.4377 35.09 68.1377 34.8166C67.8443 34.5366 67.4743 34.3966 67.0277 34.3966C66.5943 34.3966 66.221 34.54 65.9077 34.8266C65.5943 35.1066 65.3977 35.47 65.3177 35.9166ZM75.2909 34.4566V33.6766H76.2109V39.0366H75.2909V38.2766C74.8109 38.87 74.1809 39.1666 73.4009 39.1666C72.6276 39.1666 71.9876 38.8933 71.4809 38.3466C70.9743 37.8 70.7209 37.1233 70.7209 36.3166C70.7209 35.51 70.9743 34.85 71.4809 34.3366C71.9876 33.81 72.6276 33.5466 73.4009 33.5466C74.1609 33.5466 74.7909 33.85 75.2909 34.4566ZM75.3509 36.3466C75.3509 35.8066 75.1809 35.3533 74.8409 34.9866C74.5009 34.6133 74.0576 34.4266 73.5109 34.4266C72.9643 34.4266 72.5243 34.6133 72.1909 34.9866C71.8576 35.36 71.6909 35.8166 71.6909 36.3566C71.6909 36.8966 71.8576 37.3533 72.1909 37.7266C72.5243 38.1 72.9643 38.2866 73.5109 38.2866C74.0576 38.2866 74.5009 38.1 74.8409 37.7266C75.1809 37.36 75.3509 36.9 75.3509 36.3466ZM84.1913 33.5366C84.838 33.5366 85.358 33.7466 85.7513 34.1666C86.138 34.5733 86.3313 35.1333 86.3313 35.8466V39.0366H85.3713V35.9966C85.3713 35.4966 85.2547 35.11 85.0213 34.8366C84.7947 34.5633 84.4813 34.4266 84.0813 34.4266C83.6613 34.4266 83.318 34.5733 83.0513 34.8666C82.7847 35.16 82.6513 35.5433 82.6513 36.0166V39.0366H81.7013V36.0166C81.7013 35.5166 81.5847 35.1266 81.3513 34.8466C81.118 34.5666 80.8013 34.4266 80.4013 34.4266C79.9813 34.4266 79.6347 34.5766 79.3613 34.8766C79.0947 35.17 78.9613 35.5566 78.9613 36.0366V39.0366H78.0013V33.6766H78.9413V34.4666C79.1013 34.1666 79.3213 33.9366 79.6013 33.7766C79.888 33.61 80.208 33.53 80.5613 33.5366C80.928 33.5366 81.2647 33.6266 81.5713 33.8066C81.878 33.98 82.1013 34.2233 82.2413 34.5366C82.4213 34.23 82.6847 33.9866 83.0313 33.8066C83.3847 33.6266 83.7713 33.5366 84.1913 33.5366ZM90.9984 31.6466H93.4684C94.2417 31.6466 94.835 31.8733 95.2484 32.3266C95.655 32.7733 95.8584 33.3066 95.8584 33.9266C95.8584 34.56 95.645 35.1 95.2184 35.5466C94.785 35.9866 94.1717 36.2066 93.3784 36.2066H91.9984V39.0366H90.9984V31.6466ZM91.9984 35.2766H93.3984C93.8584 35.2766 94.215 35.1466 94.4684 34.8866C94.7284 34.6266 94.8584 34.3 94.8584 33.9066C94.8584 33.5333 94.7384 33.22 94.4984 32.9666C94.265 32.7133 93.9417 32.5866 93.5284 32.5866H91.9984V35.2766ZM98.1523 39.0366H97.1923V33.6766H98.1023V34.4666C98.4157 33.8466 98.929 33.5366 99.6423 33.5366C99.8357 33.5366 100.046 33.5633 100.272 33.6166L100.182 34.5466C99.989 34.4866 99.8023 34.4566 99.6223 34.4566C99.1823 34.4566 98.8257 34.6066 98.5523 34.9066C98.2857 35.2066 98.1523 35.6366 98.1523 36.1966V39.0366ZM103.615 39.1666C102.795 39.1666 102.118 38.8966 101.585 38.3566C101.058 37.81 100.795 37.14 100.795 36.3466C100.795 35.5533 101.058 34.89 101.585 34.3566C102.112 33.81 102.788 33.5366 103.615 33.5366C104.428 33.5366 105.098 33.81 105.625 34.3566C106.158 34.91 106.425 35.5733 106.425 36.3466C106.425 37.1333 106.158 37.8033 105.625 38.3566C105.092 38.8966 104.422 39.1666 103.615 39.1666ZM105.465 36.3466C105.465 35.82 105.285 35.37 104.925 34.9966C104.565 34.6166 104.128 34.4266 103.615 34.4266C103.102 34.4266 102.665 34.6166 102.305 34.9966C101.945 35.37 101.765 35.82 101.765 36.3466C101.765 36.88 101.945 37.3366 102.305 37.7166C102.665 38.0966 103.102 38.2866 103.615 38.2866C104.128 38.2866 104.565 38.0966 104.925 37.7166C105.285 37.3366 105.465 36.88 105.465 36.3466ZM112.1 34.4566V31.4666H113.06V39.0366H112.1V38.2866C111.634 38.8733 111.014 39.1666 110.24 39.1666C109.46 39.1666 108.814 38.8966 108.3 38.3566C107.794 37.81 107.54 37.14 107.54 36.3466C107.54 35.56 107.794 34.9 108.3 34.3666C108.807 33.82 109.447 33.5466 110.22 33.5466C110.987 33.5466 111.614 33.85 112.1 34.4566ZM112.17 36.3466C112.17 35.8066 112 35.3533 111.66 34.9866C111.327 34.6133 110.887 34.4266 110.34 34.4266C109.794 34.4266 109.35 34.6133 109.01 34.9866C108.677 35.36 108.51 35.8133 108.51 36.3466C108.51 36.8933 108.677 37.3533 109.01 37.7266C109.35 38.1 109.794 38.2866 110.34 38.2866C110.887 38.2866 111.327 38.1 111.66 37.7266C112 37.36 112.17 36.9 112.17 36.3466ZM117.07 39.1666C116.37 39.1666 115.81 38.96 115.39 38.5466C114.977 38.1333 114.77 37.5766 114.77 36.8766V33.6766H115.73V36.8466C115.73 37.2866 115.847 37.6366 116.08 37.8966C116.32 38.15 116.65 38.2766 117.07 38.2766C117.49 38.2766 117.82 38.15 118.06 37.8966C118.3 37.6366 118.42 37.2866 118.42 36.8466V33.6766H119.37V36.8766C119.37 37.59 119.164 38.15 118.75 38.5566C118.344 38.9633 117.784 39.1666 117.07 39.1666ZM123.588 39.1566C122.754 39.1566 122.074 38.8933 121.548 38.3666C121.021 37.84 120.758 37.17 120.758 36.3566C120.758 35.5433 121.024 34.87 121.558 34.3366C122.091 33.81 122.784 33.5466 123.638 33.5466C124.164 33.5466 124.648 33.6733 125.088 33.9266C125.534 34.18 125.861 34.52 126.068 34.9466L125.278 35.4066C125.098 35.1 124.861 34.86 124.568 34.6866C124.281 34.5133 123.971 34.4266 123.638 34.4266C123.091 34.4266 122.634 34.61 122.268 34.9766C121.908 35.35 121.728 35.81 121.728 36.3566C121.728 36.8966 121.904 37.3533 122.258 37.7266C122.604 38.0933 123.048 38.2766 123.588 38.2766C123.921 38.2766 124.241 38.1866 124.548 38.0066C124.861 37.8266 125.094 37.5966 125.248 37.3166L126.048 37.7766C125.821 38.1966 125.488 38.53 125.048 38.7766C124.594 39.03 124.108 39.1566 123.588 39.1566ZM130.514 37.9766L130.874 38.7166C130.487 39.0166 130.011 39.1666 129.444 39.1666C128.884 39.1666 128.457 38.9933 128.164 38.6466C127.877 38.3 127.734 37.8033 127.734 37.1566V34.4966H126.784V33.6766H127.744V31.7766H128.684V33.6766H130.584V34.4966H128.684V37.2266C128.684 37.9333 128.974 38.2866 129.554 38.2866C129.867 38.2866 130.187 38.1833 130.514 37.9766ZM132.442 32.9166C132.242 32.9166 132.075 32.8533 131.942 32.7266C131.808 32.5933 131.742 32.4266 131.742 32.2266C131.742 32.0333 131.808 31.8733 131.942 31.7466C132.075 31.62 132.242 31.5566 132.442 31.5566C132.628 31.5566 132.788 31.6233 132.922 31.7566C133.055 31.8833 133.122 32.04 133.122 32.2266C133.122 32.4266 133.055 32.5933 132.922 32.7266C132.788 32.8533 132.628 32.9166 132.442 32.9166ZM132.902 33.6766V39.0366H131.942V33.6766H132.902ZM136.783 37.6866L138.403 33.6766H139.463L137.103 39.0266H136.433L134.073 33.6766H135.143L136.783 37.6866ZM141.127 32.9166C140.927 32.9166 140.761 32.8533 140.627 32.7266C140.494 32.5933 140.427 32.4266 140.427 32.2266C140.427 32.0333 140.494 31.8733 140.627 31.7466C140.761 31.62 140.927 31.5566 141.127 31.5566C141.314 31.5566 141.474 31.6233 141.607 31.7566C141.741 31.8833 141.807 32.04 141.807 32.2266C141.807 32.4266 141.741 32.5933 141.607 32.7266C141.474 32.8533 141.314 32.9166 141.127 32.9166ZM141.587 33.6766V39.0366H140.627V33.6766H141.587ZM146.519 37.9766L146.879 38.7166C146.492 39.0166 146.015 39.1666 145.449 39.1666C144.889 39.1666 144.462 38.9933 144.169 38.6466C143.882 38.3 143.739 37.8033 143.739 37.1566V34.4966H142.789V33.6766H143.749V31.7766H144.689V33.6766H146.589V34.4966H144.689V37.2266C144.689 37.9333 144.979 38.2866 145.559 38.2866C145.872 38.2866 146.192 38.1833 146.519 37.9766ZM150.106 37.6966L151.546 33.6766H152.606L150.356 39.6366C150.136 40.23 149.876 40.6566 149.576 40.9166C149.283 41.1833 148.923 41.3166 148.496 41.3166C148.156 41.3166 147.87 41.2466 147.636 41.1066L147.756 40.2666C147.996 40.3733 148.213 40.4266 148.406 40.4266C148.846 40.4266 149.2 40.1133 149.466 39.4866L149.666 39.0166L147.336 33.6766H148.446L150.106 37.6966ZM158.604 39.1566C158.057 39.1566 157.557 39.0266 157.104 38.7666C156.657 38.5 156.317 38.1233 156.084 37.6366L156.824 37.0266C157.224 37.8133 157.814 38.2066 158.594 38.2066C159.007 38.2066 159.337 38.1 159.584 37.8866C159.831 37.6733 159.954 37.4066 159.954 37.0866C159.954 36.6933 159.697 36.35 159.184 36.0566C159.091 36.01 158.837 35.89 158.424 35.6966C158.084 35.5433 157.807 35.4033 157.594 35.2766C156.854 34.81 156.484 34.2233 156.484 33.5166C156.484 32.95 156.687 32.4766 157.094 32.0966C157.501 31.71 158.041 31.5166 158.714 31.5166C159.634 31.5166 160.357 31.88 160.884 32.6066L160.214 33.2466C159.814 32.72 159.317 32.4566 158.724 32.4566C158.384 32.4566 158.104 32.55 157.884 32.7366C157.664 32.9166 157.554 33.1566 157.554 33.4566C157.554 33.8433 157.764 34.16 158.184 34.4066C158.357 34.5133 158.644 34.66 159.044 34.8466C159.464 35.0466 159.774 35.2033 159.974 35.3166C160.687 35.75 161.044 36.3233 161.044 37.0366C161.044 37.67 160.811 38.18 160.344 38.5666C159.877 38.96 159.297 39.1566 158.604 39.1566ZM164.729 39.1666C164.029 39.1666 163.469 38.96 163.049 38.5466C162.635 38.1333 162.429 37.5766 162.429 36.8766V33.6766H163.389V36.8466C163.389 37.2866 163.505 37.6366 163.739 37.8966C163.979 38.15 164.309 38.2766 164.729 38.2766C165.149 38.2766 165.479 38.15 165.719 37.8966C165.959 37.6366 166.079 37.2866 166.079 36.8466V33.6766H167.029V36.8766C167.029 37.59 166.822 38.15 166.409 38.5566C166.002 38.9633 165.442 39.1666 164.729 39.1666ZM169.246 32.9166C169.046 32.9166 168.879 32.8533 168.746 32.7266C168.613 32.5933 168.546 32.4266 168.546 32.2266C168.546 32.0333 168.613 31.8733 168.746 31.7466C168.879 31.62 169.046 31.5566 169.246 31.5566C169.433 31.5566 169.593 31.6233 169.726 31.7566C169.859 31.8833 169.926 32.04 169.926 32.2266C169.926 32.4266 169.859 32.5933 169.726 32.7266C169.593 32.8533 169.433 32.9166 169.246 32.9166ZM169.706 33.6766V39.0366H168.746V33.6766H169.706ZM174.637 37.9766L174.997 38.7166C174.61 39.0166 174.134 39.1666 173.567 39.1666C173.007 39.1666 172.58 38.9933 172.287 38.6466C172 38.3 171.857 37.8033 171.857 37.1566V34.4966H170.907V33.6766H171.867V31.7766H172.807V33.6766H174.707V34.4966H172.807V37.2266C172.807 37.9333 173.097 38.2866 173.677 38.2866C173.99 38.2866 174.31 38.1833 174.637 37.9766ZM180.966 36.2566C180.966 36.3233 180.956 36.4866 180.936 36.7466H176.666C176.753 37.22 176.953 37.5933 177.266 37.8666C177.58 38.14 178.006 38.2766 178.546 38.2766C178.866 38.2766 179.196 38.2233 179.536 38.1166C179.876 38.0033 180.17 37.8566 180.416 37.6766L180.826 38.4066C180.546 38.62 180.2 38.8 179.786 38.9466C179.373 39.0866 178.953 39.1566 178.526 39.1566C178.04 39.1566 177.606 39.0766 177.226 38.9166C176.853 38.7566 176.556 38.54 176.336 38.2666C176.116 37.9933 175.95 37.6933 175.836 37.3666C175.723 37.04 175.666 36.6966 175.666 36.3366C175.666 35.5366 175.916 34.87 176.416 34.3366C176.923 33.81 177.576 33.5466 178.376 33.5466C179.136 33.5466 179.756 33.79 180.236 34.2766C180.723 34.7633 180.966 35.4233 180.966 36.2566ZM176.666 35.9166H179.976C179.95 35.4566 179.786 35.09 179.486 34.8166C179.193 34.5366 178.823 34.3966 178.376 34.3966C177.943 34.3966 177.57 34.54 177.256 34.8266C176.943 35.1066 176.746 35.47 176.666 35.9166Z" fill="#808080"/>
<defs>
<filter id="filter0_d_12234_792" x="-0.000163078" y="-2.38419e-07" width="55.9373" height="55.9373" filterUnits="userSpaceOnUse" color-interpolation-filters="sRGB">
<feFlood flood-opacity="0" result="BackgroundImageFix"/>
<feColorMatrix in="SourceAlpha" type="matrix" values="0 0 0 0 0 0 0 0 0 0 0 0 0 0 0 0 0 0 127 0" result="hardAlpha"/>
<feOffset dy="3.72917"/>
<feGaussianBlur stdDeviation="3.26302"/>
<feComposite in2="hardAlpha" operator="out"/>
<feColorMatrix type="matrix" values="0 0 0 0 0.634615 0 0 0 0 0.634615 0 0 0 0 0.634615 0 0 0 0.5 0"/>
<feBlend mode="normal" in2="BackgroundImageFix" result="effect1_dropShadow_12234_792"/>
<feBlend mode="normal" in="SourceGraphic" in2="effect1_dropShadow_12234_792" result="shape"/>
</filter>
<linearGradient id="paint0_linear_12234_792" x1="8.85661" y1="2.79688" x2="47.5467" y2="43.8177" gradientUnits="userSpaceOnUse">
<stop stop-color="#070534"/>
<stop offset="1" stop-color="#150F9A"/>
</linearGradient>
</defs>
</svg>
